# xmcd CD database file
#
# Track frame offsets:
#	150
#	17570
#	38207
#	54164
#	73003
#	86291
#	109314
#	129986
#	149565
#	175496
#	192228
#	212173
#	229575
#	252076
#	270393
#	291788
#	311393
#
# Disc length: 4347 seconds
#
# Revision: 0
# Processed by: cddbd v1.5.2PL0 Copyright (c) Steve Scherf et al.
# Submitted via: Feurio! 1.68 - http://www.feurio.com
#
DISCID=ed10f911
DTITLE=Various Aritsts - Blue Light Blues Vol. 4
DYEAR=1900
DGENRE=Blues
TTITLE0=Tyrone Davis - Sleep With Me
TTITLE1=Albert King /Bobby Bland  ???? - When You Leave Don't Take Nothing
TTITLE2=Willie Clayton - Cheatin' On Me
TTITLE3=????? - Two Wrongs Don't Make A Right
TTITLE4=Bobby Woamck - Nobody Want's You When You're Down And Out
TTITLE5=Poonanny - Last Three Dollars
TTITLE6=Sir Charles Jones - You better Call Jody
TTITLE7=?????? - The Right Stuff Baby
TTITLE8=Bobby Rush - I Ain't Stuttin' You
TTITLE9=Little Milton - A Lump On Your Stomp
TTITLE10=The Love Doctor - Slow Roll It
TTITLE11=Lee Shot Williams - Who's Knockin' The Boots
TTITLE12=Bobby Jonz - Tag On Your Toe
TTITLE13=Jimmy Lewis - That Baby Ain't Black Enough
TTITLE14=Denise LaSalle - Lick It Before You Stick It
TTITLE15=Rudy Ray Moore - Willa Mae
TTITLE16=???? - I'm Prayin' For You
EXTD=
EXTT0=
EXTT1=
EXTT2=
EXTT3=
EXTT4=
EXTT5=
EXTT6=
EXTT7=
EXTT8=
EXTT9=
EXTT10=
EXTT11=
EXTT12=
EXTT13=
EXTT14=
EXTT15=
EXTT16=
PLAYORDER=
